<?xml version="1.0" encoding="UTF-8"?>
<svg width="32px" height="32px" viewBox="0 0 32 32" version="1.1" xmlns="http://www.w3.org/2000/svg">
    <title>Tech Guide</title>
    <g fill="#4a90e2">
        <path d="M14,26H6a2,2,0,0,1-2-2V18a2,2,0,0,1,2-2h8a2,2,0,0,1,2,2v6A2,2,0,0,1,14,26ZM6,18v6h8V18Z"/>
        <path d="M26,26H18a2,2,0,0,1-2-2V18a2,2,0,0,1,2-2h8a2,2,0,0,1,2,2v6A2,2,0,0,1,26,26ZM18,18v6h8V18Z"/>
        <path d="M14,14H6a2,2,0,0,1-2-2V6A2,2,0,0,1,6,4h8a2,2,0,0,1,2,2v6A2,2,0,0,1,14,14ZM6,6v6h8V6Z"/>
        <path d="M26,14H18a2,2,0,0,1-2-2V6a2,2,0,0,1,2-2h8a2,2,0,0,1,2,2v6A2,2,0,0,1,26,14ZM18,6v6h8V6Z"/>
        <rect x="15" y="4" width="2" height="24"/>
        <rect x="4" y="15" width="24" height="2"/>
    </g>
</svg> 